<svg width="1024" height="494" viewBox="0 0 1024 494" fill="none" xmlns="http://www.w3.org/2000/svg">
<path d="M320 26.5H232.5L27 466.5H130.5L166 390.5H233.5L276 297H209.5L276 154.5L310 225L361.5 115.5L320 26.5Z" fill="#000"/>
<path d="M583 26.5H479.5L274.5 466.5H377.5L583 26.5Z" fill="#000"/>
<path d="M790.5 26.5H702.5L598.5 249.5H702L746.5 154L892.5 466.5H996L790.5 26.5Z" fill="#000"/>
<path d="M320 26.5H232.5L27 466.5H130.5L166 390.5H233.5L276 297H209.5L276 154.5L310 225L361.5 115.5L320 26.5Z" stroke="#000"/>
<path d="M583 26.5H479.5L274.5 466.5H377.5L583 26.5Z" stroke="#000"/>
<path d="M790.5 26.5H702.5L598.5 249.5H702L746.5 154L892.5 466.5H996L790.5 26.5Z" stroke="#000"/>
</svg>
