<svg width="483" height="136" viewBox="0 0 483 136" fill="none" xmlns="http://www.w3.org/2000/svg">
<path d="M191.312 135.256C187.387 135.256 184.187 134.061 181.712 131.672C179.237 129.283 178 126.253 178 122.584V13.8721C178 10.1174 179.195 6.96006 181.584 4.40005C184.059 1.84006 187.301 0.560059 191.312 0.560059C195.579 0.560059 198.907 1.84006 201.296 4.40005C203.771 6.87473 205.008 9.94673 205.008 13.6161V122.584C205.008 126.253 203.685 129.283 201.04 131.672C198.48 134.061 195.237 135.256 191.312 135.256Z" fill="black"/>
<path d="M225.026 81.98C221.271 81.98 218.242 80.8707 215.938 78.652C213.719 76.348 212.61 73.532 212.61 70.204V27.836C212.61 24.252 213.677 21.2227 215.81 18.748C217.943 16.2733 221.015 15.036 225.026 15.036C228.951 15.036 231.938 16.2733 233.986 18.748C236.034 21.2227 237.058 24.3373 237.058 28.092V34.492H239.362C239.362 29.628 240.215 25.788 241.922 22.972C243.714 20.156 245.975 18.1507 248.706 16.956C251.437 15.676 254.167 15.036 256.898 15.036C263.469 15.036 268.29 17.4253 271.362 22.204C274.434 26.8973 275.97 33.596 275.97 42.3V70.204C275.97 73.532 274.861 76.348 272.642 78.652C270.423 80.8707 267.437 81.98 263.682 81.98C259.842 81.98 256.77 80.8707 254.466 78.652C252.247 76.348 251.138 73.532 251.138 70.204V47.548C251.138 44.476 250.541 42.0867 249.346 40.38C248.237 38.6733 246.573 37.82 244.354 37.82C241.794 37.82 239.917 38.7587 238.722 40.636C237.613 42.5133 237.058 44.9027 237.058 47.804V70.204C237.058 73.532 235.991 76.348 233.858 78.652C231.725 80.8707 228.781 81.98 225.026 81.98Z" fill="black"/>
<path d="M295.026 81.98C291.271 81.98 288.242 80.8707 285.938 78.652C283.719 76.348 282.61 73.532 282.61 70.204V27.836C282.61 24.252 283.677 21.2227 285.81 18.748C287.943 16.2733 291.015 15.036 295.026 15.036C298.951 15.036 301.938 16.2733 303.986 18.748C306.034 21.2227 307.058 24.3373 307.058 28.092V34.492H309.362C309.362 29.628 310.215 25.788 311.922 22.972C313.714 20.156 315.975 18.1507 318.706 16.956C321.437 15.676 324.167 15.036 326.898 15.036C333.469 15.036 338.29 17.4253 341.362 22.204C344.434 26.8973 345.97 33.596 345.97 42.3V70.204C345.97 73.532 344.861 76.348 342.642 78.652C340.423 80.8707 337.437 81.98 333.682 81.98C329.842 81.98 326.77 80.8707 324.466 78.652C322.247 76.348 321.138 73.532 321.138 70.204V47.548C321.138 44.476 320.541 42.0867 319.346 40.38C318.237 38.6733 316.573 37.82 314.354 37.82C311.794 37.82 309.917 38.7587 308.722 40.636C307.613 42.5133 307.058 44.9027 307.058 47.804V70.204C307.058 73.532 305.991 76.348 303.858 78.652C301.725 80.8707 298.781 81.98 295.026 81.98Z" fill="black"/>
<path d="M352.098 48.7C352.098 41.9587 353.421 36.028 356.066 30.908C358.797 25.788 362.637 21.7773 367.586 18.876C372.621 15.9747 378.594 14.524 385.506 14.524C390.882 14.524 395.703 15.5053 399.97 17.468C404.322 19.4307 407.735 22.076 410.21 25.404C412.685 28.6467 413.922 32.2307 413.922 36.156C413.922 40.252 412.727 43.1533 410.338 44.86C407.949 46.5667 404.407 47.42 399.714 47.42H372.834C372.834 49.6387 373.687 51.4733 375.394 52.924C377.186 54.3747 380.173 55.1 384.354 55.1C386.487 55.1 388.45 54.8867 390.242 54.46C392.119 54.0333 393.997 53.6493 395.874 53.308C397.837 52.8813 400.013 52.668 402.402 52.668C405.815 52.668 408.631 53.9053 410.85 56.38C413.069 58.7693 414.178 62.0973 414.178 66.364C414.178 71.3987 411.575 75.324 406.37 78.14C401.25 80.956 394.509 82.364 386.146 82.364C380.258 82.364 374.711 81.212 369.506 78.908C364.386 76.604 360.205 72.9773 356.962 68.028C353.719 62.9933 352.098 56.5507 352.098 48.7ZM393.57 43.196C394.85 43.196 395.277 42.5987 394.85 41.404C394.509 40.2093 393.485 38.972 391.778 37.692C390.071 36.412 387.597 35.772 384.354 35.772C380.599 35.772 377.783 36.5827 375.906 38.204C374.114 39.8253 373.218 41.4893 373.218 43.196H393.57Z" fill="black"/>
<path d="M452.241 83.644C446.353 83.644 440.892 83.0893 435.857 81.98C430.908 80.7853 426.94 78.9507 423.953 76.476C420.966 73.916 419.473 70.5453 419.473 66.364C419.473 62.6947 420.582 59.6653 422.801 57.276C425.02 54.8867 427.964 53.692 431.633 53.692C433.937 53.692 436.241 54.076 438.545 54.844C440.934 55.5267 443.452 56.2093 446.097 56.892C448.742 57.5747 451.601 57.916 454.673 57.916C457.404 57.916 459.238 57.788 460.177 57.532C461.116 57.1907 461.585 56.5933 461.585 55.74C461.585 54.716 460.988 54.0333 459.793 53.692C458.684 53.3507 456.764 52.924 454.033 52.412L444.817 50.62C440.977 49.852 437.222 48.8707 433.553 47.676C429.969 46.396 426.982 44.5187 424.593 42.044C422.289 39.5693 421.137 36.1987 421.137 31.932C421.137 26.1293 423.697 21.6067 428.817 18.364C434.022 15.1213 441.532 13.5 451.345 13.5C456.977 13.5 462.012 14.0547 466.449 15.164C470.972 16.2733 474.556 17.9373 477.201 20.156C479.846 22.2893 481.169 24.9773 481.169 28.22C481.254 31.7187 480.316 34.5347 478.353 36.668C476.39 38.8013 473.916 39.868 470.929 39.868C468.796 39.868 466.62 39.612 464.401 39.1C462.268 38.5027 459.921 37.9053 457.361 37.308C454.886 36.6253 452.028 36.2413 448.785 36.156C446.481 35.9853 444.604 36.1133 443.153 36.54C441.702 36.9667 440.977 37.6493 440.977 38.588C440.977 39.612 441.83 40.3373 443.537 40.764C445.244 41.1053 447.804 41.5747 451.217 42.172L460.305 43.836C465.852 44.7747 470.246 45.9693 473.489 47.42C476.817 48.7853 479.206 50.7053 480.657 53.18C482.108 55.6547 482.833 59.068 482.833 63.42C482.833 67.9427 481.51 71.74 478.865 74.812C476.305 77.7987 472.721 80.0173 468.113 81.468C463.505 82.9187 458.214 83.644 452.241 83.644Z" fill="black"/>
<path d="M154.302 43C150.138 43 146.454 42.1395 143.251 40.4184C140.047 38.6435 137.538 36.1426 135.723 32.9156C133.908 29.6886 133 25.8968 133 21.5403C133 17.1839 133.908 13.3921 135.723 10.1651C137.538 6.93809 140.047 4.43715 143.251 2.66229C146.507 0.88743 150.244 0 154.462 0C157.772 0 160.682 0.349594 163.191 1.04878C165.754 1.74797 167.756 2.79675 169.197 4.19512C170.692 5.5935 171.439 7.34146 171.439 9.43902C171.439 11.9669 170.799 13.9568 169.517 15.409C168.236 16.8074 166.394 17.5066 163.992 17.5066C162.39 17.5066 160.789 17.2645 159.187 16.7805C157.639 16.2964 155.637 16.0544 153.181 16.0544C151.152 16.0544 149.444 16.3771 148.055 17.0225C146.667 17.6679 145.973 18.8512 145.973 20.5722C145.973 22.3471 146.667 23.6379 148.055 24.4447C149.444 25.1976 151.152 25.5741 153.181 25.5741C154.836 25.5741 156.224 25.4128 157.345 25.0901C158.466 24.7674 159.534 24.4447 160.548 24.122C161.563 23.7992 162.71 23.6379 163.992 23.6379C166.715 23.6379 168.717 24.4447 169.998 26.0582C171.333 27.6179 172 29.6348 172 32.1088C172 34.2064 171.226 36.0888 169.678 37.7561C168.129 39.3696 166.021 40.6604 163.351 41.6285C160.682 42.5428 157.665 43 154.302 43Z" fill="black"/>
<path d="M16.9112 135C11.1636 135 6.90818 133.297 4.14491 129.89C1.38164 126.484 0 121.923 0 116.209V39.3956C0 31.044 2.26588 24.8901 6.79765 20.9341C11.4399 16.978 16.9665 15 23.3773 15C29.4565 15 34.5962 16.978 38.7963 20.9341C43.107 24.8901 46.2572 31.1539 48.2467 39.7253L61.1789 95.6044H65.4896L78.4217 39.7253C80.4112 31.1539 83.5614 24.8901 87.8721 20.9341C92.2933 16.978 97.5435 15 103.623 15C110.034 15 115.505 16.978 120.037 20.9341C124.679 24.8901 127 31.044 127 39.3956V116.209C127 121.923 125.563 126.484 122.689 129.89C119.926 133.297 115.671 135 109.923 135C104.396 135 100.141 133.297 97.1567 129.89C94.1723 126.484 92.6802 121.923 92.6802 116.209V71.8681C92.6802 70.7692 92.5144 69.7802 92.1828 68.9011C91.9617 67.9121 91.2433 67.4176 90.0274 67.4176C89.0326 67.4176 88.3142 67.9121 87.8721 68.9011C87.4299 69.7802 87.0983 70.7692 86.8773 71.8681L80.577 113.407C79.8033 117.912 78.8638 121.813 77.7585 125.11C76.7637 128.297 75.161 130.769 72.9504 132.527C70.7398 134.176 67.5344 135 63.3342 135C59.2446 135 56.0392 134.176 53.718 132.527C51.5074 130.769 49.8494 128.297 48.7441 125.11C47.7493 121.813 46.9204 117.912 46.2572 113.407L39.7911 71.8681C39.6806 70.7692 39.4043 69.7802 38.9621 68.9011C38.52 67.9121 37.7463 67.4176 36.641 67.4176C35.5357 67.4176 34.8172 67.9121 34.4856 68.9011C34.154 69.7802 33.9883 70.7692 33.9883 71.8681V116.209C33.9883 121.923 32.4961 126.484 29.5117 129.89C26.6379 133.297 22.4378 135 16.9112 135Z" fill="black"/>
<path d="M226.041 135H213.132V88.4545H227.041C231.405 88.4545 235.139 89.3788 238.245 91.2273C241.352 93.0758 243.73 95.7273 245.382 99.1818C247.049 102.621 247.874 106.75 247.859 111.568C247.844 116.492 246.98 120.705 245.268 124.205C243.556 127.689 241.079 130.364 237.836 132.227C234.594 134.076 230.662 135 226.041 135ZM215.973 132.364H225.927C230.079 132.364 233.579 131.538 236.427 129.886C239.276 128.22 241.427 125.833 242.882 122.727C244.352 119.621 245.079 115.902 245.064 111.568C245.064 107.295 244.359 103.636 242.95 100.591C241.541 97.5303 239.488 95.1818 236.791 93.5455C234.109 91.9091 230.821 91.0909 226.927 91.0909H215.973V132.364Z" fill="black"/>
<path d="M267.904 135V88.4545H293.813V91.0909H270.745V110.386H292.427V113.023H270.745V132.364H294.359V135H267.904Z" fill="black"/>
<path d="M339.643 100.091C339.4 97.197 338.219 94.8561 336.097 93.0682C333.991 91.2803 331.264 90.3864 327.915 90.3864C325.658 90.3864 323.65 90.803 321.893 91.6364C320.135 92.4697 318.756 93.6061 317.756 95.0455C316.756 96.4848 316.256 98.1364 316.256 100C316.256 101.197 316.484 102.28 316.938 103.25C317.408 104.205 318.067 105.061 318.915 105.818C319.764 106.561 320.772 107.212 321.938 107.773C323.105 108.333 324.393 108.826 325.802 109.25L330.893 110.75C332.635 111.28 334.241 111.894 335.711 112.591C337.196 113.288 338.484 114.121 339.575 115.091C340.681 116.045 341.537 117.167 342.143 118.455C342.764 119.742 343.075 121.227 343.075 122.909C343.075 125.364 342.438 127.561 341.165 129.5C339.908 131.439 338.112 132.97 335.779 134.091C333.461 135.197 330.726 135.75 327.575 135.75C324.575 135.75 321.961 135.242 319.734 134.227C317.522 133.212 315.772 131.803 314.484 130C313.196 128.182 312.469 126.091 312.302 123.727H315.211C315.362 125.652 315.976 127.318 317.052 128.727C318.143 130.121 319.59 131.197 321.393 131.955C323.196 132.712 325.256 133.091 327.575 133.091C330.075 133.091 332.279 132.667 334.188 131.818C336.097 130.955 337.59 129.758 338.665 128.227C339.741 126.697 340.279 124.917 340.279 122.886C340.279 121.25 339.893 119.848 339.12 118.682C338.347 117.515 337.203 116.508 335.688 115.659C334.188 114.811 332.325 114.053 330.097 113.386L324.665 111.75C321.029 110.644 318.249 109.136 316.325 107.227C314.415 105.318 313.461 102.939 313.461 100.091C313.461 97.697 314.097 95.5758 315.37 93.7273C316.643 91.8636 318.37 90.4015 320.552 89.3409C322.749 88.2803 325.226 87.75 327.984 87.75C330.756 87.75 333.203 88.2879 335.325 89.3636C337.446 90.4242 339.128 91.8864 340.37 93.75C341.612 95.5985 342.302 97.7121 342.438 100.091H339.643Z" fill="black"/>
<path d="M366.103 88.4545V135H363.262V88.4545H366.103Z" fill="black"/>
<path d="M421.148 103C420.799 101.424 420.209 99.9015 419.375 98.4318C418.542 96.947 417.474 95.6136 416.171 94.4318C414.883 93.2348 413.368 92.2879 411.625 91.5909C409.898 90.8939 407.959 90.5455 405.807 90.5455C402.519 90.5455 399.603 91.4091 397.057 93.1364C394.527 94.8485 392.542 97.2955 391.103 100.477C389.678 103.644 388.966 107.394 388.966 111.727C388.966 116.015 389.678 119.75 391.103 122.932C392.527 126.114 394.519 128.576 397.08 130.318C399.656 132.045 402.648 132.909 406.057 132.909C409.103 132.909 411.799 132.205 414.148 130.795C416.512 129.386 418.353 127.371 419.671 124.75C420.989 122.129 421.633 118.992 421.603 115.341L422.603 115.818H406.784V113.182H424.375V115.818C424.375 119.924 423.587 123.462 422.012 126.432C420.451 129.386 418.284 131.659 415.512 133.25C412.754 134.841 409.603 135.636 406.057 135.636C402.057 135.636 398.565 134.644 395.58 132.659C392.595 130.674 390.277 127.894 388.625 124.318C386.989 120.727 386.171 116.53 386.171 111.727C386.171 108.121 386.64 104.848 387.58 101.909C388.519 98.9697 389.86 96.4545 391.603 94.3636C393.345 92.2576 395.421 90.6439 397.83 89.5227C400.239 88.3864 402.898 87.8182 405.807 87.8182C408.443 87.8182 410.815 88.2576 412.921 89.1364C415.027 90 416.845 91.1667 418.375 92.6364C419.921 94.0909 421.171 95.7197 422.125 97.5227C423.08 99.3106 423.724 101.136 424.057 103H421.148Z" fill="black"/>
<path d="M480.438 88.4545V135H477.665L447.983 93.6136H447.71V135H444.869V88.4545H447.665L477.347 129.886H477.619V88.4545H480.438Z" fill="black"/>
</svg>
