<svg width="288" height="107" viewBox="0 0 288 107" fill="none" xmlns="http://www.w3.org/2000/svg">
<path d="M87.4485 74.0001H76.6758V39.091H87.9258C91.3121 39.091 94.2099 39.7899 96.619 41.1876C99.0281 42.574 100.875 44.5683 102.159 47.1706C103.443 49.7615 104.085 52.8638 104.085 56.4774C104.085 60.1138 103.437 63.2445 102.142 65.8695C100.846 68.4831 98.9599 70.4945 96.4826 71.9035C94.0053 73.3013 90.994 74.0001 87.4485 74.0001ZM80.9031 70.2501H87.1758C90.0621 70.2501 92.4542 69.6933 94.3519 68.5797C96.2496 67.466 97.6644 65.8808 98.5962 63.824C99.5281 61.7672 99.994 59.3183 99.994 56.4774C99.994 53.6592 99.5337 51.2331 98.6133 49.199C97.6928 47.1535 96.3178 45.5854 94.4883 44.4945C92.6587 43.3922 90.3803 42.841 87.6531 42.841H80.9031V70.2501Z" fill="black"/>
<path d="M118.376 74.0001V39.091H139.444V42.841H122.603V54.6365H138.353V58.3865H122.603V70.2501H139.717V74.0001H118.376Z" fill="black"/>
<path d="M173.354 47.8183C173.15 46.091 172.32 44.7501 170.866 43.7956C169.411 42.841 167.627 42.3638 165.513 42.3638C163.968 42.3638 162.616 42.6138 161.456 43.1138C160.309 43.6138 159.411 44.3013 158.763 45.1763C158.127 46.0513 157.809 47.0456 157.809 48.1592C157.809 49.091 158.03 49.8922 158.474 50.5626C158.928 51.2217 159.508 51.7729 160.212 52.216C160.917 52.6479 161.655 53.0058 162.428 53.2899C163.201 53.5626 163.911 53.7842 164.559 53.9547L168.104 54.9092C169.013 55.1479 170.025 55.4774 171.138 55.8979C172.263 56.3183 173.337 56.8922 174.36 57.6195C175.394 58.3354 176.246 59.2558 176.917 60.3808C177.587 61.5058 177.922 62.8865 177.922 64.5229C177.922 66.4092 177.428 68.1138 176.439 69.6365C175.462 71.1592 174.03 72.3695 172.144 73.2672C170.269 74.1649 167.991 74.6138 165.309 74.6138C162.809 74.6138 160.644 74.2104 158.814 73.4035C156.996 72.5967 155.564 71.4717 154.519 70.0285C153.485 68.5854 152.9 66.9092 152.763 65.0001H157.127C157.241 66.3183 157.684 67.4092 158.456 68.2729C159.241 69.1251 160.229 69.7615 161.422 70.182C162.627 70.591 163.922 70.7956 165.309 70.7956C166.922 70.7956 168.371 70.5342 169.655 70.0115C170.939 69.4774 171.956 68.7388 172.706 67.7956C173.456 66.841 173.831 65.7274 173.831 64.4547C173.831 63.2956 173.508 62.3524 172.86 61.6251C172.212 60.8979 171.36 60.307 170.303 59.8524C169.246 59.3979 168.104 59.0001 166.877 58.6592L162.581 57.432C159.854 56.6479 157.695 55.5285 156.104 54.074C154.513 52.6195 153.718 50.716 153.718 48.3638C153.718 46.4092 154.246 44.7047 155.303 43.2501C156.371 41.7842 157.803 40.6479 159.599 39.841C161.405 39.0229 163.422 38.6138 165.65 38.6138C167.9 38.6138 169.9 39.0172 171.65 39.824C173.4 40.6195 174.786 41.7104 175.809 43.0967C176.843 44.4831 177.388 46.057 177.445 47.8183H173.354Z" fill="black"/>
<path d="M196.3 39.091V74.0001H192.073V39.091H196.3Z" fill="black"/>
<path d="M235.839 50.0001C235.464 48.8524 234.97 47.824 234.356 46.9149C233.754 45.9945 233.033 45.2104 232.192 44.5626C231.362 43.9149 230.419 43.4206 229.362 43.0797C228.305 42.7388 227.146 42.5683 225.885 42.5683C223.817 42.5683 221.936 43.1024 220.243 44.1706C218.55 45.2388 217.203 46.8126 216.203 48.8922C215.203 50.9717 214.703 53.5229 214.703 56.5456C214.703 59.5683 215.209 62.1195 216.22 64.199C217.231 66.2785 218.601 67.8524 220.328 68.9206C222.055 69.9888 223.999 70.5229 226.158 70.5229C228.158 70.5229 229.919 70.0967 231.442 69.2445C232.976 68.3808 234.169 67.1649 235.021 65.5967C235.885 64.0172 236.317 62.1592 236.317 60.0229L237.612 60.2956H227.112V56.5456H240.408V60.2956C240.408 63.1706 239.794 65.6706 238.567 67.7956C237.351 69.9206 235.669 71.5683 233.521 72.7388C231.385 73.8979 228.93 74.4774 226.158 74.4774C223.067 74.4774 220.351 73.7501 218.01 72.2956C215.68 70.841 213.862 68.7729 212.555 66.091C211.26 63.4092 210.612 60.2274 210.612 56.5456C210.612 53.7842 210.981 51.3013 211.72 49.0967C212.47 46.8808 213.527 44.9945 214.891 43.4376C216.254 41.8808 217.868 40.6876 219.731 39.8581C221.595 39.0285 223.646 38.6138 225.885 38.6138C227.726 38.6138 229.442 38.8922 231.033 39.449C232.635 39.9945 234.061 40.7729 235.311 41.7842C236.572 42.7842 237.624 43.9831 238.464 45.3808C239.305 46.7672 239.885 48.307 240.203 50.0001H235.839Z" fill="black"/>
<path d="M282.529 39.091V74.0001H278.439L259.416 46.591H259.075V74.0001H254.848V39.091H258.939L278.029 66.5683H278.37V39.091H282.529Z" fill="black"/>
<path d="M62.958 36.8301C61.2347 37.1246 59.66 37.0362 58.2339 36.5651C56.8077 36.0352 55.6489 35.1813 54.7576 34.0036C53.9257 32.767 53.5097 31.2065 53.5097 29.3221C53.3314 27.5556 53.5394 25.524 54.1337 23.2274C54.7279 20.872 55.5895 18.5165 56.7186 16.1611C57.907 13.8056 59.1846 11.774 60.5514 10.0663C61.7398 8.65308 62.9283 7.35758 64.1168 6.17986C65.3052 5.00213 66.3749 4.20717 67.3256 3.79496C68.1576 3.44165 68.9301 3.23554 69.6432 3.17666C70.4157 3.05889 71.0396 3 71.515 3C72.4658 3.23555 73.4759 3.67719 74.5456 4.32494C75.6746 4.9138 76.2391 5.56155 76.2391 6.26819C76.2391 6.26819 76.2986 6.35652 76.4174 6.53318C76.5957 6.65095 76.6848 6.70983 76.6848 6.70983C77.0414 6.70983 77.3385 7.09259 77.5762 7.85811C77.8733 8.62364 78.0515 9.50693 78.111 10.508C78.1704 11.4502 78.0218 12.2451 77.6653 12.8929C77.4276 14.0117 77.0116 14.9833 76.4174 15.8078C75.8232 16.6322 75.2884 17.0444 74.813 17.0444C74.5753 17.0444 74.3376 17.0738 74.0999 17.1327C73.9216 17.1327 73.8325 17.2799 73.8325 17.5743C73.8325 17.8688 73.6542 17.9865 73.2977 17.9277C73.0006 17.8688 72.6737 17.6921 72.3172 17.3977C71.9607 17.0444 71.6933 16.6322 71.515 16.1611C71.515 15.8666 71.6338 15.3661 71.8715 14.6595C72.1092 13.9528 72.3469 13.0401 72.5846 11.9213C72.9411 10.2724 72.9114 9.2125 72.4955 8.74141C72.0795 8.21143 71.2773 8.18199 70.0888 8.65308C68.6032 9.47749 67.1771 10.6258 65.8103 12.0979C64.503 13.5701 63.2848 15.4839 62.1558 17.8393C61.0268 20.1359 60.0166 23.0213 59.1252 26.4956C58.7687 27.85 58.6201 29.0277 58.6795 30.0288C58.7984 31.0298 58.9469 31.5598 59.1252 31.6187C59.9571 31.8543 61.0862 31.9131 62.5123 31.7954C63.9385 31.6187 64.9784 31.3537 65.6321 31.0004C66.5828 30.5293 67.6525 29.911 68.8409 29.1455C70.0294 28.3211 71.0693 27.585 71.9607 26.9373C72.2578 26.7606 72.6143 26.4662 73.0303 26.054C73.4462 25.6418 73.8919 25.3179 74.3673 25.0823C74.8427 24.3757 75.2587 23.9635 75.6152 23.8457C75.9717 23.728 76.5065 23.6691 77.2196 23.6691C77.695 23.7868 78.1407 23.9635 78.5566 24.199C78.9726 24.4346 79.24 24.6701 79.3589 24.9057C79.5371 25.1412 79.448 25.3473 79.0915 25.524C78.8538 25.524 78.7052 25.6123 78.6458 25.789C78.6458 25.9067 78.6458 25.9656 78.6458 25.9656C78.7646 26.2012 78.4972 26.7017 77.8436 27.4672C77.2493 28.1739 76.4768 28.9688 75.5261 29.8521C74.5753 30.7354 73.6542 31.5009 72.7629 32.1487C71.9309 32.7375 71.3367 33.032 70.9802 33.032C70.3859 33.032 70.0888 33.2086 70.0888 33.5619C70.0888 33.6797 69.6431 33.9742 68.7518 34.4452C67.9199 34.9163 66.9394 35.3874 65.8103 35.8585C64.7407 36.3296 63.7899 36.6535 62.958 36.8301Z" fill="black"/>
<path d="M63.88 96.912C64.0507 97.424 64.2213 97.8933 64.392 98.32C64.5627 98.7467 64.6907 99.216 64.776 99.728C64.9467 100.24 65.032 100.709 65.032 101.136C65.032 101.733 64.8187 102.203 64.392 102.544C63.9653 102.971 63.4533 103.312 62.856 103.568C62.344 103.824 61.832 103.995 61.32 104.08C60.808 104.165 60.5093 104.208 60.424 104.208C59.912 104.208 58.9733 102.629 57.608 99.472C56.2427 96.4 54.7493 92.048 53.128 86.416C51.592 80.784 50.0133 74.0853 48.392 66.32C46.7707 58.5547 45.448 50.0213 44.424 40.72C44.2533 42.6827 43.912 44.9867 43.4 47.632C42.9733 50.192 42.2907 52.624 41.352 54.928C40.4133 57.232 39.176 59.1947 37.64 60.816C36.1893 62.352 34.312 63.12 32.008 63.12C30.3867 63.12 28.552 62.2667 26.504 60.56C24.456 58.8533 22.4507 56.848 20.488 54.544C18.6107 52.1547 16.8613 49.7653 15.24 47.376C13.704 44.9013 12.552 42.896 11.784 41.36C12.1253 45.1147 12.68 49.6373 13.448 54.928C14.3013 60.2187 15.5813 65.808 17.288 71.696C17.4587 72.2933 17.6293 72.7627 17.8 73.104C18.056 73.36 18.2693 73.6587 18.44 74C18.696 74.3413 18.8667 74.7253 18.952 75.152C19.1227 75.4933 19.208 76.048 19.208 76.816C19.208 77.9253 18.7813 78.736 17.928 79.248C17.0747 79.76 16.264 80.016 15.496 80.016C15.0693 80.016 14.5147 79.376 13.832 78.096C13.1493 76.7307 12.424 74.9813 11.656 72.848C10.888 70.7147 10.12 68.368 9.352 65.808C8.584 63.1627 7.85867 60.56 7.176 58C6.57867 55.44 6.06667 53.0507 5.64 50.832C5.21333 48.528 5 46.6933 5 45.328C5 43.1093 5.08533 41.5733 5.256 40.72C5.512 39.8667 5.85333 39.2267 6.28 38.8V30.992C6.28 29.7973 6.57867 28.9013 7.176 28.304C7.85867 27.6213 8.712 27.28 9.736 27.28C10.5893 27.28 11.5707 28.0053 12.68 29.456C13.7893 30.9067 14.984 32.7413 16.264 34.96C17.6293 37.1787 19.0373 39.568 20.488 42.128C21.9387 44.688 23.3467 47.0773 24.712 49.296C26.1627 51.5147 27.528 53.3493 28.808 54.8C30.1733 56.2507 31.4533 56.976 32.648 56.976C33.7573 56.976 34.824 55.952 35.848 53.904C36.872 51.7707 37.8107 48.9973 38.664 45.584C39.6027 42.1707 40.4133 38.288 41.096 33.936C41.7787 29.584 42.3333 25.1467 42.76 20.624C42.76 20.112 42.7173 19.5573 42.632 18.96C42.5467 18.2773 42.504 17.552 42.504 16.784C42.504 15.76 42.7173 14.6507 43.144 13.456C43.656 12.2613 44.5947 11.664 45.96 11.664C46.728 11.664 47.3253 11.8773 47.752 12.304C48.264 12.7307 48.6053 13.2853 48.776 13.968C48.9467 14.5653 49.032 15.2053 49.032 15.888C49.1173 16.4853 49.16 16.9973 49.16 17.424C49.16 18.1067 49.0747 19.2587 48.904 20.88C48.8187 22.416 48.776 24.8053 48.776 28.048C48.776 30.864 48.9893 34.1493 49.416 37.904C49.8427 41.5733 50.3973 45.4987 51.08 49.68C51.848 53.776 52.7013 58.0427 53.64 62.48C54.664 66.832 55.7307 71.0987 56.84 75.28C58.0347 79.4613 59.1867 83.4293 60.296 87.184C61.4907 90.8533 62.6853 94.096 63.88 96.912Z" fill="black"/>
</svg>
