<svg width="301" height="109" viewBox="0 0 301 109" fill="none" xmlns="http://www.w3.org/2000/svg">
<path d="M62.958 37.8301C61.2347 38.1246 59.66 38.0362 58.2339 37.5651C56.8077 37.0352 55.6489 36.1813 54.7576 35.0036C53.9257 33.767 53.5097 32.2065 53.5097 30.3221C53.3314 28.5556 53.5394 26.524 54.1337 24.2274C54.7279 21.872 55.5895 19.5165 56.7186 17.1611C57.907 14.8056 59.1846 12.774 60.5514 11.0663C61.7398 9.65308 62.9283 8.35758 64.1168 7.17986C65.3052 6.00213 66.3749 5.20717 67.3256 4.79496C68.1576 4.44165 68.9301 4.23554 69.6432 4.17666C70.4157 4.05889 71.0396 4 71.515 4C72.4658 4.23555 73.4759 4.67719 74.5456 5.32494C75.6746 5.9138 76.2391 6.56155 76.2391 7.26819C76.2391 7.26819 76.2986 7.35652 76.4174 7.53318C76.5957 7.65095 76.6848 7.70983 76.6848 7.70983C77.0414 7.70983 77.3385 8.09259 77.5762 8.85811C77.8733 9.62364 78.0515 10.5069 78.111 11.508C78.1704 12.4502 78.0218 13.2451 77.6653 13.8929C77.4276 15.0117 77.0116 15.9833 76.4174 16.8078C75.8232 17.6322 75.2884 18.0444 74.813 18.0444C74.5753 18.0444 74.3376 18.0738 74.0999 18.1327C73.9216 18.1327 73.8325 18.2799 73.8325 18.5743C73.8325 18.8688 73.6542 18.9865 73.2977 18.9277C73.0006 18.8688 72.6737 18.6921 72.3172 18.3977C71.9607 18.0444 71.6933 17.6322 71.515 17.1611C71.515 16.8666 71.6338 16.3661 71.8715 15.6595C72.1092 14.9528 72.3469 14.0401 72.5846 12.9213C72.9411 11.2724 72.9114 10.2125 72.4955 9.74141C72.0795 9.21143 71.2773 9.18199 70.0888 9.65308C68.6032 10.4775 67.1771 11.6258 65.8103 13.0979C64.503 14.5701 63.2848 16.4839 62.1558 18.8393C61.0268 21.1359 60.0166 24.0213 59.1252 27.4956C58.7687 28.85 58.6201 30.0277 58.6795 31.0288C58.7984 32.0298 58.9469 32.5598 59.1252 32.6187C59.9571 32.8543 61.0862 32.9131 62.5123 32.7954C63.9385 32.6187 64.9784 32.3537 65.6321 32.0004C66.5828 31.5293 67.6525 30.911 68.8409 30.1455C70.0294 29.3211 71.0693 28.585 71.9607 27.9373C72.2578 27.7606 72.6143 27.4662 73.0303 27.054C73.4462 26.6418 73.8919 26.3179 74.3673 26.0823C74.8427 25.3757 75.2587 24.9635 75.6152 24.8457C75.9717 24.728 76.5065 24.6691 77.2196 24.6691C77.695 24.7868 78.1407 24.9635 78.5566 25.199C78.9726 25.4346 79.24 25.6701 79.3589 25.9057C79.5371 26.1412 79.448 26.3473 79.0915 26.524C78.8538 26.524 78.7052 26.6123 78.6458 26.789C78.6458 26.9067 78.6458 26.9656 78.6458 26.9656C78.7646 27.2012 78.4972 27.7017 77.8436 28.4672C77.2493 29.1739 76.4768 29.9688 75.5261 30.8521C74.5753 31.7354 73.6542 32.5009 72.7629 33.1487C71.9309 33.7375 71.3367 34.032 70.9802 34.032C70.3859 34.032 70.0888 34.2086 70.0888 34.5619C70.0888 34.6797 69.6431 34.9742 68.7518 35.4452C67.9199 35.9163 66.9394 36.3874 65.8103 36.8585C64.7407 37.3296 63.7899 37.6535 62.958 37.8301Z" fill="black"/>
<path d="M63.88 97.912C64.0507 98.424 64.2213 98.8933 64.392 99.32C64.5627 99.7467 64.6907 100.216 64.776 100.728C64.9467 101.24 65.032 101.709 65.032 102.136C65.032 102.733 64.8187 103.203 64.392 103.544C63.9653 103.971 63.4533 104.312 62.856 104.568C62.344 104.824 61.832 104.995 61.32 105.08C60.808 105.165 60.5093 105.208 60.424 105.208C59.912 105.208 58.9733 103.629 57.608 100.472C56.2427 97.4 54.7493 93.048 53.128 87.416C51.592 81.784 50.0133 75.0853 48.392 67.32C46.7707 59.5547 45.448 51.0213 44.424 41.72C44.2533 43.6827 43.912 45.9867 43.4 48.632C42.9733 51.192 42.2907 53.624 41.352 55.928C40.4133 58.232 39.176 60.1947 37.64 61.816C36.1893 63.352 34.312 64.12 32.008 64.12C30.3867 64.12 28.552 63.2667 26.504 61.56C24.456 59.8533 22.4507 57.848 20.488 55.544C18.6107 53.1547 16.8613 50.7653 15.24 48.376C13.704 45.9013 12.552 43.896 11.784 42.36C12.1253 46.1147 12.68 50.6373 13.448 55.928C14.3013 61.2187 15.5813 66.808 17.288 72.696C17.4587 73.2933 17.6293 73.7627 17.8 74.104C18.056 74.36 18.2693 74.6587 18.44 75C18.696 75.3413 18.8667 75.7253 18.952 76.152C19.1227 76.4933 19.208 77.048 19.208 77.816C19.208 78.9253 18.7813 79.736 17.928 80.248C17.0747 80.76 16.264 81.016 15.496 81.016C15.0693 81.016 14.5147 80.376 13.832 79.096C13.1493 77.7307 12.424 75.9813 11.656 73.848C10.888 71.7147 10.12 69.368 9.352 66.808C8.584 64.1627 7.85867 61.56 7.176 59C6.57867 56.44 6.06667 54.0507 5.64 51.832C5.21333 49.528 5 47.6933 5 46.328C5 44.1093 5.08533 42.5733 5.256 41.72C5.512 40.8667 5.85333 40.2267 6.28 39.8V31.992C6.28 30.7973 6.57867 29.9013 7.176 29.304C7.85867 28.6213 8.712 28.28 9.736 28.28C10.5893 28.28 11.5707 29.0053 12.68 30.456C13.7893 31.9067 14.984 33.7413 16.264 35.96C17.6293 38.1787 19.0373 40.568 20.488 43.128C21.9387 45.688 23.3467 48.0773 24.712 50.296C26.1627 52.5147 27.528 54.3493 28.808 55.8C30.1733 57.2507 31.4533 57.976 32.648 57.976C33.7573 57.976 34.824 56.952 35.848 54.904C36.872 52.7707 37.8107 49.9973 38.664 46.584C39.6027 43.1707 40.4133 39.288 41.096 34.936C41.7787 30.584 42.3333 26.1467 42.76 21.624C42.76 21.112 42.7173 20.5573 42.632 19.96C42.5467 19.2773 42.504 18.552 42.504 17.784C42.504 16.76 42.7173 15.6507 43.144 14.456C43.656 13.2613 44.5947 12.664 45.96 12.664C46.728 12.664 47.3253 12.8773 47.752 13.304C48.264 13.7307 48.6053 14.2853 48.776 14.968C48.9467 15.5653 49.032 16.2053 49.032 16.888C49.1173 17.4853 49.16 17.9973 49.16 18.424C49.16 19.1067 49.0747 20.2587 48.904 21.88C48.8187 23.416 48.776 25.8053 48.776 29.048C48.776 31.864 48.9893 35.1493 49.416 38.904C49.8427 42.5733 50.3973 46.4987 51.08 50.68C51.848 54.776 52.7013 59.0427 53.64 63.48C54.664 67.832 55.7307 72.0987 56.84 76.28C58.0347 80.4613 59.1867 84.4293 60.296 88.184C61.4907 91.8533 62.6853 95.096 63.88 97.912Z" fill="black"/>
<path d="M135.984 76.6961C135.984 78.3175 135.002 79.5121 133.04 80.2801C131.077 81.0481 128.773 81.8588 126.128 82.7121C123.568 83.4801 121.093 84.2055 118.704 84.8881C116.314 85.4855 114.181 86.0828 112.304 86.6801C110.512 87.1921 109.402 87.5761 108.976 87.8321C108.976 88.0028 108.976 88.2161 108.976 88.4721C108.976 88.7281 109.018 88.9841 109.104 89.2401L109.488 92.3121C109.488 93.0801 109.36 93.6775 109.104 94.1041C108.933 94.5308 108.506 94.7441 107.824 94.7441C107.056 94.7441 106.501 94.5308 106.16 94.1041C105.904 93.5921 105.648 93.0375 105.392 92.4401C105.221 91.7575 105.05 91.0748 104.88 90.3921C104.794 89.7095 104.581 89.1975 104.24 88.8561C104.069 88.8561 103.386 89.0268 102.192 89.3681C100.997 89.7095 99.461 90.1361 97.5836 90.6481C95.7916 91.1601 93.7437 91.7575 91.4397 92.4401C89.221 93.0375 87.045 93.5921 84.9117 94.1041C82.7783 94.6161 80.773 95.0428 78.8956 95.3841C77.0183 95.7255 75.5676 95.8961 74.5436 95.8961C72.2396 95.8961 71.0876 95.1708 71.0876 93.7201C71.0876 92.6108 71.3863 91.8001 71.9837 91.2881C72.6663 90.7761 73.4343 90.3921 74.2877 90.1361C74.4583 90.0508 75.269 89.8375 76.7197 89.4961C78.2557 89.1548 80.0903 88.7708 82.2236 88.3441C84.357 87.8321 86.6183 87.2775 89.0077 86.6801C91.4823 86.0828 93.7436 85.5281 95.7916 85.0161C97.925 84.5041 99.6317 84.0348 100.912 83.6081C102.277 83.1815 102.96 82.8828 102.96 82.7121C102.96 82.2001 102.746 81.2615 102.32 79.8961C101.978 78.5308 101.637 77.2508 101.296 76.0561L100.528 73.4961C99.333 68.0348 98.3943 62.5308 97.7116 56.9841C97.029 51.4375 96.4743 45.9761 96.0476 40.6001C95.877 40.4295 95.6636 40.3441 95.4076 40.3441C94.981 40.3441 93.8717 40.7708 92.0797 41.6241C90.2876 42.4775 88.3676 43.4161 86.3196 44.4401C84.2716 45.3788 82.3516 46.2748 80.5596 47.1281C78.853 47.9815 77.829 48.4081 77.4876 48.4081C76.8903 48.4081 76.293 48.1521 75.6956 47.6401C75.1836 47.1281 74.9277 46.6161 74.9277 46.1041C74.9277 45.4215 75.4823 44.6535 76.5916 43.8001C77.701 42.8615 79.0663 41.9228 80.6876 40.9841C82.3943 39.9601 84.229 39.0215 86.1917 38.1681C88.2397 37.2295 90.1597 36.4188 91.9517 35.7361C93.829 34.9681 95.4077 34.3708 96.6877 33.9441C98.053 33.5175 98.949 33.3041 99.3756 33.3041C100.058 33.3041 100.954 33.1761 102.064 32.9201C103.173 32.6641 104.368 32.3655 105.648 32.0241C106.928 31.6828 108.208 31.3841 109.488 31.1281C110.853 30.8721 112.048 30.7441 113.072 30.7441C114.181 30.7441 114.736 31.1281 114.736 31.8961C114.736 32.3228 114.565 32.6641 114.224 32.9201L110.512 33.9441C109.573 34.2001 108.549 34.4988 107.44 34.8401C106.416 35.0961 105.434 35.4375 104.496 35.8641C103.642 36.2055 102.917 36.6321 102.32 37.1441C101.808 37.5708 101.552 38.0401 101.552 38.5521C101.552 40.6855 101.765 43.5015 102.192 47.0001C102.704 50.4135 103.258 54.1255 103.856 58.1361C104.538 62.0615 105.264 66.0721 106.032 70.1681C106.8 74.2641 107.44 78.1041 107.952 81.6881L130.864 75.8001C131.376 75.7148 131.888 75.5868 132.4 75.4161C132.826 75.2455 133.253 75.1175 133.68 75.0321C134.106 74.9468 134.49 74.9041 134.832 74.9041C135.6 74.9041 135.984 75.5015 135.984 76.6961Z" fill="black"/>
<path d="M258.527 53.5601C258.612 53.7308 258.655 53.9868 258.655 54.3281C258.655 54.8401 258.271 55.6081 257.503 56.6321C257.247 56.9735 256.692 57.5281 255.839 58.2961C254.985 59.0641 253.833 59.8321 252.383 60.6001C250.932 61.3681 249.14 62.0508 247.007 62.6481C244.959 63.2455 242.527 63.5441 239.711 63.5441C237.748 63.5441 235.828 63.1175 233.951 62.2641C232.073 61.3255 230.409 60.0028 228.959 58.2961C227.508 56.5041 226.313 54.3281 225.375 51.7681C224.436 49.1228 223.967 46.0508 223.967 42.5521C223.967 39.2241 224.393 36.1095 225.247 33.2081C226.1 30.3068 227.167 27.7468 228.447 25.5281C229.812 23.3095 231.305 21.5601 232.927 20.2801C234.548 19.0001 236.127 18.3601 237.663 18.3601C239.028 18.3601 240.393 18.6588 241.759 19.2561C243.209 19.7681 244.489 20.4508 245.599 21.3041C246.793 22.1575 247.732 23.1388 248.415 24.2481C249.097 25.2721 249.439 26.3388 249.439 27.4481C249.439 28.7281 248.841 30.0508 247.647 31.4161C246.537 32.7815 245.172 34.0615 243.551 35.2561C241.929 36.3655 240.308 37.3041 238.687 38.0721C237.065 38.7548 235.785 39.0961 234.847 39.0961C234.335 39.0961 233.865 38.8828 233.439 38.4561C233.097 37.9441 232.927 37.3468 232.927 36.6641C232.927 35.4695 233.439 34.5308 234.463 33.8481C235.572 33.1655 236.767 32.5681 238.047 32.0561C239.327 31.4588 240.479 30.7761 241.503 30.0081C242.612 29.2401 243.167 28.1735 243.167 26.8081C243.167 26.6375 242.953 26.2108 242.527 25.5281C242.1 24.8455 240.948 24.5041 239.071 24.5041C238.217 24.5041 237.236 25.0161 236.127 26.0401C235.017 26.9788 233.951 28.3015 232.927 30.0081C231.903 31.6295 231.049 33.5921 230.367 35.8961C229.684 38.1148 229.343 40.5468 229.343 43.1921C229.343 45.4108 229.727 47.4161 230.495 49.2081C231.348 51.0001 232.415 52.5361 233.695 53.8161C234.975 55.0108 236.468 55.9495 238.175 56.6321C239.881 57.3148 241.631 57.6561 243.423 57.6561C244.703 57.6561 246.068 57.4001 247.519 56.8881C249.055 56.2908 250.463 55.6935 251.743 55.0961C253.108 54.4135 254.26 53.8161 255.199 53.3041C256.223 52.7068 256.863 52.4081 257.119 52.4081C257.375 52.4081 257.631 52.5361 257.887 52.7921C258.228 53.0481 258.441 53.3041 258.527 53.5601Z" fill="black"/>
<path d="M296.368 50.1041C296.368 51.5548 295.856 52.8348 294.832 53.9441C293.893 54.9681 292.656 55.8641 291.12 56.6321C289.669 57.3148 288.048 57.8695 286.256 58.2961C284.464 58.7228 282.757 59.0641 281.136 59.3201C279.514 59.4908 278.064 59.6188 276.784 59.7041C275.589 59.7041 274.821 59.7041 274.48 59.7041C272.602 59.7041 271.152 59.4055 270.128 58.8081C269.104 58.2108 268.592 57.1441 268.592 55.6081C268.592 55.0961 268.634 54.6695 268.72 54.3281C268.805 53.9015 269.146 53.6881 269.744 53.6881C270 53.6881 270.426 53.7735 271.024 53.9441C271.621 54.0295 272.09 54.0721 272.432 54.0721C272.773 54.0721 273.84 54.0295 275.632 53.9441C277.509 53.7735 279.472 53.5175 281.52 53.1761C283.653 52.8348 285.53 52.3655 287.152 51.7681C288.858 51.0855 289.712 50.2321 289.712 49.2081C289.712 49.0375 288.816 48.5255 287.024 47.6721C285.317 46.7335 282.714 45.1975 279.216 43.0641C276.485 41.3575 274.565 39.6508 273.456 37.9441C272.346 36.1521 271.792 33.7628 271.792 30.7761C271.792 28.8988 272.176 27.3628 272.944 26.1681C273.797 24.9735 274.906 24.0348 276.272 23.3521C277.722 22.6695 279.344 22.2001 281.136 21.9441C283.013 21.6028 284.976 21.4321 287.024 21.4321C287.194 21.4321 287.706 21.5175 288.56 21.6881C289.498 21.8588 290.48 22.1575 291.504 22.5841C292.528 22.9255 293.424 23.3948 294.192 23.9921C295.045 24.5041 295.472 25.1015 295.472 25.7841C295.472 25.9548 295.301 26.2108 294.96 26.5521C294.704 26.8935 294.234 27.5335 293.552 28.4721C293.296 28.3868 292.826 28.2588 292.144 28.0881C291.546 27.9175 290.821 27.7468 289.968 27.5761C289.2 27.3201 288.389 27.1495 287.536 27.0641C286.682 26.8935 286 26.8081 285.488 26.8081C283.269 26.8081 281.477 27.2348 280.112 28.0881C278.746 28.8561 278.064 30.3921 278.064 32.6961C278.064 33.8055 278.49 34.8295 279.344 35.7681C280.282 36.7068 281.434 37.6028 282.8 38.4561C284.165 39.2241 285.616 40.0348 287.152 40.8881C288.773 41.6561 290.266 42.5095 291.632 43.4481C292.997 44.3868 294.106 45.4108 294.96 46.5201C295.898 47.5441 296.368 48.7388 296.368 50.1041Z" fill="black"/>
<path d="M182.851 60.467C181.492 60.5767 180.215 60.3574 179.019 59.8092C175.921 58.5484 173.339 56.7667 171.273 54.4643C169.262 52.1619 167.631 49.421 166.381 46.2415C165.891 44.9258 165.348 43.5828 164.75 42.2123C164.152 40.8418 163.472 39.2521 162.711 37.443C162.005 38.8135 161.352 39.9921 160.754 40.9789C160.211 41.9656 159.722 42.9249 159.287 43.8569C158.417 45.5562 157.602 47.283 156.841 49.0373C156.079 50.7366 155.264 52.4634 154.394 54.2177C153.959 55.0948 153.443 55.9445 152.845 56.7667C152.302 57.5342 151.568 57.9179 150.644 57.9179C150.209 57.9179 149.91 57.8905 149.747 57.8357C148.605 57.5068 147.79 56.8764 147.3 55.9445C146.811 55.0125 146.458 53.9436 146.24 52.7375C146.023 50.5448 145.697 48.3794 145.262 46.2415C144.881 44.0487 144.501 41.856 144.12 39.6632C144.012 39.2246 143.849 38.7587 143.631 38.2653C143.468 37.7719 143.278 37.3334 143.06 36.9497C142.082 34.7569 141.076 33.6605 140.043 33.6605C139.228 33.6605 138.277 34.4006 137.19 35.8807C135.939 37.6349 134.743 39.4439 133.602 41.3078C132.515 43.1716 131.862 45.2547 131.645 47.5571C131.428 50.0788 130.395 51.2574 128.546 51.093C127.731 51.0382 126.997 50.627 126.345 49.8595C125.747 49.0921 125.448 48.2424 125.448 47.3105C125.448 47.0912 125.502 46.8171 125.611 46.4882C125.829 45.5014 126.1 44.5147 126.426 43.5279C126.753 42.5412 127.16 41.6093 127.65 40.7322C128.682 38.5942 129.824 36.5659 131.074 34.6473C132.379 32.7286 133.874 30.9744 135.559 29.3846C137.298 27.7949 138.983 27 140.614 27C142.789 27 144.691 28.3705 146.322 31.1114C147.355 32.6464 148.116 34.2635 148.605 35.9629C149.149 37.6623 149.611 39.3891 149.991 41.1433C150.154 41.856 150.317 42.596 150.48 43.3635C150.698 44.131 150.97 45.1451 151.296 46.4059C151.894 45.474 152.383 44.734 152.764 44.1858C153.144 43.5828 153.497 43.0072 153.824 42.459C154.748 41.0337 155.617 39.5536 156.433 38.0186C157.248 36.4837 158.145 35.031 159.124 33.6605C160.537 31.687 162.005 30.7003 163.527 30.7003C165.321 30.7003 166.788 32.1256 167.93 34.9762C168.691 37.0045 169.425 39.0602 170.131 41.1433C170.892 43.2264 171.708 45.2822 172.578 47.3105C173.121 48.352 173.746 49.3936 174.453 50.4351C175.16 51.4767 175.866 52.4634 176.573 53.3954C178.149 55.4785 180.242 56.4926 182.851 56.4378C183.449 56.383 184.075 56.4378 184.727 56.6023C185.379 56.7667 185.705 57.3149 185.705 58.2469C185.705 59.124 185.379 59.6996 184.727 59.9736C184.129 60.3026 183.504 60.467 182.851 60.467Z" fill="black"/>
<path d="M219.373 61.9471C218.667 62.1116 218.096 61.8923 217.661 61.2893C217.28 60.6863 216.981 59.9188 216.764 58.9869C216.547 58.1098 216.356 57.2601 216.193 56.4378C215.595 53.8613 214.97 51.3122 214.318 48.7906C213.72 46.2689 213.095 43.7472 212.442 41.2255C211.845 38.649 211.165 37.1415 210.404 36.703C209.643 36.2096 208.882 36.3466 208.121 37.1141C207.36 37.8816 206.626 38.8957 205.919 40.1566C205.158 41.5819 204.506 43.0894 203.962 44.6791C203.419 46.2141 202.794 47.7216 202.087 49.2017C201.598 50.2981 201.081 51.3945 200.538 52.4909C199.994 53.5324 199.396 54.5466 198.744 55.5333C198.363 56.246 197.847 56.7942 197.195 57.1779C196.542 57.5616 195.781 57.6987 194.912 57.589C193.879 57.4794 193.091 57.0957 192.547 56.4378C192.058 55.78 191.677 55.0125 191.405 54.1354C191.188 53.2583 190.998 52.3812 190.835 51.5041C190.672 50.627 190.536 49.7773 190.427 48.955C190.046 46.4333 189.72 43.9391 189.448 41.4722C189.177 39.0054 188.878 36.5111 188.552 33.9894C188.497 33.222 188.606 32.5641 188.878 32.0159C189.15 31.4129 189.639 31.0018 190.345 30.7825C190.454 30.7277 190.59 30.7003 190.753 30.7003C190.916 30.7003 191.025 30.7003 191.079 30.7003C191.84 30.7003 192.52 30.947 193.118 31.4403C193.77 31.9337 194.151 32.5915 194.259 33.4138C194.531 34.8939 194.721 36.4015 194.83 37.9364C194.939 39.4713 195.075 40.9789 195.238 42.459C195.401 43.5553 195.7 45.1451 196.135 47.2282C196.678 46.5156 197.086 45.8852 197.358 45.337C197.684 44.7888 197.929 44.3502 198.092 44.0213C198.69 42.8153 199.233 41.6093 199.722 40.4033C200.266 39.1972 200.891 38.0186 201.598 36.8674C202.196 35.9355 202.821 35.0584 203.473 34.2361C204.126 33.4138 204.859 32.6738 205.675 32.0159C207.034 30.9744 208.393 30.4536 209.752 30.4536C211.709 30.4536 213.394 31.4129 214.807 33.3316C215.405 33.9894 215.894 34.7295 216.275 35.5518C216.655 36.3192 217.009 37.0867 217.335 37.8542C218.476 41.1433 219.346 44.4599 219.944 47.8038C220.596 51.093 221.086 54.4643 221.412 57.9179C221.52 59.0691 221.385 60.0011 221.004 60.7137C220.678 61.4264 220.134 61.8375 219.373 61.9471Z" fill="black"/>
<path d="M157.539 94H150.005V70.7273H157.778C160.058 70.7273 162.016 71.1932 163.653 72.125C165.289 73.0492 166.543 74.3788 167.414 76.1136C168.293 77.8409 168.732 79.9129 168.732 82.3295C168.732 84.7538 168.289 86.8371 167.403 88.5795C166.524 90.322 165.251 91.6629 163.584 92.6023C161.918 93.5341 159.903 94 157.539 94ZM153.516 90.9318H157.346C159.118 90.9318 160.592 90.5985 161.766 89.9318C162.94 89.2576 163.819 88.2841 164.403 87.0114C164.986 85.7311 165.278 84.1705 165.278 82.3295C165.278 80.5038 164.986 78.9545 164.403 77.6818C163.827 76.4091 162.967 75.4432 161.823 74.7841C160.679 74.125 159.259 73.7955 157.562 73.7955H153.516V90.9318Z" fill="black"/>
<path d="M177.899 94V70.7273H192.489V73.75H181.41V80.8409H191.728V83.8523H181.41V90.9773H192.626V94H177.899Z" fill="black"/>
<path d="M214.673 76.8409C214.552 75.7652 214.052 74.9318 213.173 74.3409C212.294 73.7424 211.188 73.4432 209.855 73.4432C208.9 73.4432 208.075 73.5947 207.378 73.8977C206.681 74.1932 206.139 74.6023 205.753 75.125C205.374 75.6402 205.184 76.2273 205.184 76.8864C205.184 77.4394 205.313 77.9167 205.571 78.3182C205.836 78.7197 206.181 79.0568 206.605 79.3295C207.037 79.5947 207.499 79.8182 207.991 80C208.484 80.1742 208.957 80.3182 209.412 80.4318L211.684 81.0227C212.427 81.2045 213.188 81.4508 213.968 81.7614C214.749 82.072 215.472 82.4811 216.139 82.9886C216.806 83.4962 217.343 84.125 217.753 84.875C218.169 85.625 218.378 86.5227 218.378 87.5682C218.378 88.8864 218.037 90.0568 217.355 91.0795C216.681 92.1023 215.7 92.9091 214.412 93.5C213.131 94.0909 211.582 94.3864 209.764 94.3864C208.021 94.3864 206.514 94.1098 205.241 93.5568C203.968 93.0038 202.972 92.2197 202.253 91.2045C201.533 90.1818 201.135 88.9697 201.059 87.5682H204.582C204.65 88.4091 204.923 89.1098 205.4 89.6705C205.885 90.2235 206.503 90.6364 207.253 90.9091C208.01 91.1742 208.84 91.3068 209.741 91.3068C210.734 91.3068 211.616 91.1515 212.389 90.8409C213.169 90.5227 213.783 90.0833 214.23 89.5227C214.677 88.9545 214.9 88.2917 214.9 87.5341C214.9 86.8447 214.703 86.2803 214.309 85.8409C213.923 85.4015 213.396 85.0379 212.73 84.75C212.071 84.4621 211.325 84.2083 210.491 83.9886L207.741 83.2386C205.878 82.7311 204.4 81.9848 203.309 81C202.226 80.0152 201.684 78.7121 201.684 77.0909C201.684 75.75 202.048 74.5795 202.775 73.5795C203.503 72.5795 204.487 71.803 205.73 71.25C206.972 70.6894 208.374 70.4091 209.934 70.4091C211.51 70.4091 212.9 70.6856 214.105 71.2386C215.317 71.7917 216.271 72.553 216.968 73.5227C217.665 74.4848 218.029 75.5909 218.059 76.8409H214.673Z" fill="black"/>
<path d="M230.885 70.7273V94H227.374V70.7273H230.885Z" fill="black"/>
<path d="M256.549 78.0795C256.329 77.3902 256.033 76.7727 255.662 76.2273C255.299 75.6742 254.863 75.2045 254.355 74.8182C253.848 74.4242 253.268 74.125 252.617 73.9205C251.973 73.7159 251.264 73.6136 250.492 73.6136C249.181 73.6136 247.999 73.9508 246.946 74.625C245.893 75.2992 245.06 76.2879 244.446 77.5909C243.84 78.8864 243.537 80.4735 243.537 82.3523C243.537 84.2386 243.844 85.8333 244.458 87.1364C245.071 88.4394 245.912 89.428 246.98 90.1023C248.049 90.7765 249.264 91.1136 250.628 91.1136C251.893 91.1136 252.996 90.8561 253.935 90.3409C254.882 89.8258 255.613 89.0985 256.128 88.1591C256.651 87.2121 256.912 86.0985 256.912 84.8182L257.821 84.9886H251.162V82.0909H260.31V84.7386C260.31 86.6932 259.893 88.3902 259.06 89.8295C258.234 91.2614 257.09 92.3674 255.628 93.1477C254.174 93.928 252.507 94.3182 250.628 94.3182C248.522 94.3182 246.674 93.8333 245.083 92.8636C243.499 91.8939 242.264 90.5189 241.378 88.7386C240.492 86.9508 240.049 84.8295 240.049 82.375C240.049 80.5189 240.306 78.8523 240.821 77.375C241.336 75.8977 242.06 74.6439 242.992 73.6136C243.931 72.5758 245.033 71.7841 246.299 71.2386C247.571 70.6856 248.961 70.4091 250.469 70.4091C251.727 70.4091 252.897 70.5947 253.98 70.9659C255.071 71.3371 256.041 71.8636 256.889 72.5455C257.746 73.2273 258.454 74.0379 259.014 74.9773C259.575 75.9091 259.954 76.9432 260.151 78.0795H256.549Z" fill="black"/>
<path d="M288.351 70.7273V94H285.124L273.295 76.9318H273.079V94H269.567V70.7273H272.817L284.658 87.8182H284.874V70.7273H288.351Z" fill="black"/>
</svg>
